<svg width="0" height="0" class="hidden">
  <symbol fill="none" xmlns="http://www.w3.org/2000/svg" viewBox="0 0 204 50" id="elica">
    <path
      d="M79.235 45.7795C69.7942 45.7795 62 38.5013 62 27.6943V27.584C62 17.5489 69.0257 9.4988 78.5763 9.4988C88.7856 9.4988 94.6038 17.8797 94.6038 27.0326C94.6038 28.4662 93.506 29.4587 92.1887 29.4587H67.1595C67.928 36.9574 73.1973 41.2582 79.3448 41.2582C83.6261 41.2582 86.8096 39.604 89.3345 37.178C89.7736 36.8471 90.2127 36.6266 90.7616 36.6266C92.0789 36.6266 93.0669 37.6191 93.0669 38.8321C93.0669 39.3835 92.8473 40.0451 92.2984 40.4862C89.0051 43.6842 85.1629 45.7795 79.235 45.7795ZM89.4442 25.7093C88.8954 19.4236 85.2727 13.9098 78.4665 13.9098C72.4288 13.9098 67.928 18.9825 67.2693 25.7093H89.4442Z"
      fill="#7D7068"></path>
    <path
      d="M100.751 4.64661C100.751 3.21303 101.849 2 103.276 2C104.703 2 105.911 3.21303 105.911 4.64661V42.6917C105.911 44.1253 104.813 45.3383 103.386 45.3383C101.959 45.3383 100.751 44.2355 100.751 42.6917V4.64661Z"
      fill="#7D7068"></path>
    <path
      d="M112.498 12.5863C112.498 11.1527 113.595 9.93971 115.022 9.93971C116.45 9.93971 117.657 11.0425 117.657 12.5863V42.6915C117.657 44.1251 116.559 45.3382 115.132 45.3382C113.705 45.3382 112.498 44.2354 112.498 42.6915V12.5863Z"
      fill="#7D7068"></path>
    <path
      d="M123.475 27.8045V27.6943C123.475 17.8797 131.05 9.60907 141.149 9.60907C146.858 9.60907 150.81 11.8146 153.883 14.6817C154.322 15.0126 154.652 15.6742 154.652 16.4462C154.652 17.8797 153.554 18.9825 152.127 18.9825C151.468 18.9825 150.81 18.7619 150.48 18.4311C147.955 16.1153 145.211 14.2406 141.039 14.2406C134.014 14.2406 128.635 20.1955 128.635 27.6943V27.8045C128.635 35.3033 134.124 41.2582 141.369 41.2582C145.321 41.2582 148.504 39.4937 151.029 37.0677C151.359 36.7369 151.798 36.406 152.456 36.406C153.774 36.406 154.762 37.5088 154.762 38.7218C154.762 39.2732 154.542 39.9348 154.103 40.3759C150.81 43.6842 146.858 46 141.039 46C131.05 45.7794 123.475 37.5088 123.475 27.8045Z"
      fill="#7D7068"></path>
    <path
      d="M159.702 34.8621V34.7519C159.702 27.4737 165.739 23.5038 174.521 23.5038C178.913 23.5038 182.096 24.0551 185.17 24.9373V23.7243C185.17 17.4386 181.328 14.2406 174.851 14.2406C171.338 14.2406 168.484 15.0126 165.849 16.2256C165.52 16.3359 165.19 16.4461 164.861 16.4461C163.654 16.4461 162.556 15.4537 162.556 14.2406C162.556 13.1379 163.324 12.3659 163.983 12.1454C167.386 10.7118 170.899 9.8296 175.29 9.8296C180.12 9.8296 183.962 11.1529 186.487 13.6892C188.792 16.005 190 19.4236 190 23.8346V42.802C190 44.2356 188.902 45.3383 187.475 45.3383C186.048 45.3383 184.95 44.2356 184.95 42.9123V39.7143C182.535 42.9123 178.583 45.6692 172.436 45.6692C166.178 45.6692 159.702 42.0301 159.702 34.8621ZM185.17 32.2155V28.9073C182.645 28.1353 179.242 27.4737 174.961 27.4737C168.484 27.4737 164.861 30.3409 164.861 34.6416V34.7519C164.861 39.1629 168.923 41.6992 173.533 41.6992C180.01 41.589 185.17 37.7293 185.17 32.2155Z"
      fill="#7D7068"></path>
    <path
      d="M18.3505 18.7114C18.0274 18.9287 17.8119 18.8201 17.5965 18.4941C17.3811 18.0595 17.2733 17.7335 17.0579 17.2988C15.9807 14.691 16.9502 11.6486 19.4278 10.236C19.5355 10.236 19.6432 10.1274 19.7509 10.1274C22.4439 8.71479 24.9215 7.19356 27.2914 5.45502C29.1226 4.15111 30.9539 2.62988 32.5697 1.10866C32.6774 1 32.6774 1 32.7851 1H32.8928C33.0005 1 33.1083 1 33.216 1.10866C34.1855 1.76061 34.9395 2.52123 35.4781 3.60782C35.5858 3.82513 35.6936 3.93379 35.6936 4.15111C36.2322 5.56368 36.0167 6.54161 35.2627 7.73686C34.5086 8.9321 33.5391 9.91003 32.4619 10.888C29.7689 13.1698 26.9682 14.9083 23.7366 16.3209C22.013 16.9729 20.1818 17.8421 18.3505 18.7114Z"
      fill="#B4CFD3"></path>
    <path
      d="M39.5716 8.82341C43.9881 11.1052 46.4657 15.9949 45.9271 20.8846C45.6039 23.3837 44.2036 25.6655 42.0491 26.9695C39.3561 28.708 36.4477 30.3379 33.4315 31.6418C27.83 34.1409 22.6594 37.2921 17.812 41.2038C17.3811 41.5298 17.1657 41.5298 16.7348 41.2038C13.18 38.1613 13.0723 32.7284 16.5194 29.4686C17.7043 28.2734 18.9969 27.4041 20.505 26.5348C23.5212 24.9049 26.5374 23.4924 29.769 22.1885C32.0311 21.3192 34.1855 20.2326 36.2322 18.9287C38.1712 17.7334 39.2484 16.3209 40.0024 14.1477C40.5411 12.5178 40.2179 10.6706 39.1407 9.25804C38.8175 8.93207 39.1407 8.60609 39.5716 8.82341Z"
      fill="#B4CFD3"></path>
    <path
      d="M39.6794 33.0543C41.8339 34.2495 43.0188 36.5314 42.8033 39.0305C42.5879 40.3344 42.0493 41.2037 40.9721 41.9643C39.5717 42.8336 38.2791 43.5942 36.771 44.2462C33.9703 45.4414 31.4927 46.9626 29.0151 48.9185C28.7997 49.0272 28.6919 49.0272 28.4765 48.9185C26.753 47.3973 26.6453 44.7895 28.3688 43.1596C29.0151 42.6163 29.5537 42.073 30.3078 41.747C31.8158 40.9864 33.3239 40.2258 34.832 39.5738C35.9092 39.1392 36.9864 38.5959 38.0636 37.9439C39.0331 37.4007 39.5717 36.64 39.8949 35.6621C40.218 34.6842 40.1103 34.0322 39.464 33.2716C39.3563 33.163 39.464 32.9456 39.6794 33.0543Z"
      fill="#B4CFD3"></path>
  </symbol>
  <symbol fill="none" xmlns="http://www.w3.org/2000/svg" viewBox="0 0 262 64" id="falmec">
    <path
      d="M29.7514 19.309H24.3203V13.3232H29.7514C29.7514 5.21344 33.2769 0 42.9004 0C44.7108 0 46.6164 0.0965451 48.3315 0.19309V7.62707C47.2834 7.53052 46.2353 7.43397 45.2825 7.43397C42.7098 7.43397 41.09 7.72361 41.09 10.2338V13.3232H47.8551V19.309H41.09V38.8111H29.7514V19.309Z"
      fill="black"></path>
    <path
      d="M65.4823 33.8873C70.9134 33.8873 72.7238 31.3771 72.4379 25.5844C70.8181 26.3568 67.8644 26.5499 65.4823 27.1291C62.9097 27.6119 60.8135 28.4808 60.8135 30.7013C60.8135 32.9218 63.005 33.8873 65.4823 33.8873ZM50.8088 19.309C50.9994 15.6403 53.0956 13.2266 56.2399 11.7785C59.289 10.3303 63.2908 9.84756 67.1974 9.84756C75.3917 9.84756 83.3002 11.2957 83.3002 19.309V31.6668C83.3002 34.0804 83.3002 36.6871 84.6341 38.9076H73.2002C72.8191 38.0387 72.6285 37.1698 72.5332 36.2044C69.5795 38.7146 65.2918 39.68 61.0993 39.68C54.5248 39.68 49.2843 36.9767 49.2843 31.184C49.2843 22.0122 61.5757 22.6881 69.3889 21.433C71.2946 21.1433 72.3427 20.5641 72.3427 18.8263C72.3427 16.7023 69.1983 15.9299 66.9116 15.9299C63.7672 15.9299 61.7663 17.0884 61.2899 19.5021H50.8088V19.309Z"
      fill="black"></path>
    <path d="M100.261 0H88.9219V38.8111H100.261V0Z" fill="black"></path>
    <path
      d="M105.501 10.6199H116.458V14.4817H116.554C118.65 11.6819 122.271 9.84756 126.463 9.84756C130.751 9.84756 134.657 11.0061 136.563 14.3852C139.326 11.3923 142.661 9.84756 147.33 9.84756C158.288 9.84756 159.526 16.6057 159.526 22.0122V38.8111H148.188V22.2053C148.188 19.2124 146.377 17.3781 143.423 17.3781C138.564 17.3781 138.088 20.371 138.088 25.0051V38.8111H126.749V22.7846C126.749 19.5021 125.51 17.3781 122.461 17.3781C118.364 17.3781 116.649 19.309 116.649 25.0051V38.7145H105.501V10.6199Z"
      fill="black"></path>
    <path
      d="M187.539 21.8192C187.349 18.6332 184.585 16.0265 180.774 16.0265C176.772 16.0265 174.104 18.3436 173.437 21.8192H187.539ZM173.533 26.9361C173.723 30.7979 176.486 33.308 181.251 33.308C184.014 33.308 186.682 32.246 187.73 30.2186H198.306C196.21 36.6871 188.873 39.5835 181.155 39.5835C169.912 39.5835 162.194 34.0804 162.194 24.619C162.194 16.0265 170.674 9.75103 180.869 9.75103C193.256 9.75103 199.45 17.3781 198.973 26.9361H173.533Z"
      fill="black"></path>
    <path
      d="M225.462 20.9503C225.366 18.5366 222.794 16.8954 219.935 16.8954C213.647 16.8954 212.599 21.3365 212.599 25.1983C212.599 28.867 214.504 32.5357 219.364 32.5357C223.27 32.5357 225.271 30.7013 225.843 27.7084H236.8C235.752 35.2389 228.606 39.5835 219.364 39.5835C208.978 39.5835 201.26 33.7908 201.26 25.1017C201.26 16.123 208.216 9.75103 219.364 9.75103C227.939 9.75103 235.657 13.4197 236.419 20.8537H225.462V20.9503Z"
      fill="black"></path>
    <path
      d="M229.244 61.3723V58.2908H232.353V61.3723H233.921V54.2739H232.353V57.0527H229.244V54.2739H227.675V61.3723H229.244ZM217.316 61.3723L219.971 56.1998H220.012V61.3723H221.58V54.2739H219.599L216.944 59.4464H216.903V54.2739H215.335V61.3723H217.316ZM206.529 61.5755C208.029 61.5755 209.556 60.8178 209.556 59.275C209.556 58.1723 208.841 57.6348 208.18 57.512V57.4845C208.758 57.3596 209.322 56.7956 209.322 55.9818C209.322 54.5914 208.084 54.0676 206.626 54.0676C205.195 54.0676 203.696 54.5226 203.53 56.3268H205.112C205.25 55.7067 205.635 55.2665 206.474 55.2665C207.396 55.2665 207.768 55.6379 207.768 56.1617C207.768 56.8781 207.176 57.0982 206.351 57.0982H205.718V58.2559H206.598C207.685 58.2559 207.988 58.7109 207.988 59.3025C207.988 59.9776 207.396 60.3628 206.516 60.3628C205.828 60.3628 205.044 60.1427 204.906 59.1649H203.324C203.393 60.639 204.466 61.5755 206.529 61.5755ZM194.171 60.4369C193.362 60.4369 192.896 60.0517 192.896 59.3776C192.896 58.4422 193.718 58.3046 194.445 58.1945C195.007 58.112 195.583 58.0982 196.09 57.8094V58.6485C196.09 59.075 196.104 59.5427 195.775 59.8728C195.418 60.2305 194.815 60.4369 194.171 60.4369ZM197.325 61.5617C197.628 61.5617 197.848 61.5342 198.343 61.4104V60.3067C198.151 60.3342 198.096 60.3342 197.986 60.3342C197.697 60.3342 197.614 60.2242 197.614 59.8115V56.2019C197.614 54.6728 196.376 54.0527 194.698 54.0527C192.964 54.0527 191.768 54.7141 191.589 56.4633H193.074C193.198 55.5406 193.638 55.1967 194.656 55.1967C195.647 55.1967 196.115 55.5406 196.115 56.2707C196.115 56.5321 196.087 56.6982 196.018 56.7808C195.867 56.9871 195.551 57.0559 194.464 57.1935C193.047 57.3734 191.286 57.5522 191.286 59.439C191.286 60.748 192.208 61.5607 193.68 61.5607C194.615 61.5607 195.523 61.3268 196.17 60.7067C196.28 61.3268 196.72 61.5607 197.325 61.5607V61.5617ZM183.169 61.3723V55.512H186.566V54.2739H181.6V61.3723H183.169ZM172.025 60.4369C171.213 60.4369 170.745 60.0517 170.745 59.3776C170.745 58.4422 171.571 58.3046 172.3 58.1945C172.864 58.112 173.442 58.0982 173.951 57.8094V58.6485C173.951 59.075 173.964 59.5427 173.634 59.8728C173.277 60.2305 172.671 60.4369 172.025 60.4369ZM175.175 61.5617C175.478 61.5617 175.698 61.5342 176.193 61.4104V60.3067C176 60.3342 175.945 60.3342 175.835 60.3342C175.546 60.3342 175.464 60.2242 175.464 59.8115V56.2019C175.464 54.6728 174.226 54.0527 172.547 54.0527C170.814 54.0527 169.617 54.7141 169.438 56.4633H170.924C171.048 55.5406 171.488 55.1967 172.506 55.1967C173.497 55.1967 173.964 55.5406 173.964 56.2707C173.964 56.5321 173.937 56.6982 173.868 56.7808C173.717 56.9871 173.4 57.0559 172.314 57.1935C170.897 57.3734 169.136 57.5522 169.136 59.439C169.136 60.748 170.057 61.5607 171.529 61.5607C172.465 61.5607 173.373 61.3268 174.019 60.7067C174.129 61.3268 174.57 61.5607 175.175 61.5607V61.5617ZM156.891 61.3723V56.6538H156.919L158.611 61.3723H160.193L161.885 56.6538H161.912V61.3723H163.426V54.2739H161.362L159.45 59.9141H159.423L157.442 54.2739H155.378V61.3723H156.891ZM136.75 61.3723L139.405 56.1998H139.446V61.3723H141.014V54.2739H139.033L136.378 59.4464H136.337V54.2739H134.769V61.3723H136.75ZM137.897 53.2834C139.304 53.2834 140.02 52.6644 140.158 51.3438H139.358C139.178 52.0591 138.723 52.3893 137.897 52.3893C137.069 52.3893 136.614 52.0591 136.435 51.3438H135.635C135.773 52.6644 136.49 53.2834 137.897 53.2834ZM123.605 60.148H121.891V58.0707H123.577C124.248 58.0707 124.618 58.5109 124.618 59.13C124.618 59.7078 124.317 60.148 123.605 60.148ZM123.795 61.3723C125.34 61.3723 126.208 60.5057 126.208 59.1025C126.208 57.7131 125.34 56.8464 123.782 56.8464H121.895V54.2739H120.323V61.3723H123.795ZM128.742 61.3723V54.2739H127.174V61.3723H128.742ZM109.619 61.3723V58.2908H112.728V61.3723H114.297V54.2739H112.728V57.0527H109.619V54.2739H108.051V61.3723H109.619ZM97.2787 61.3723V58.2908H100.388V61.3723H101.956V54.2739H100.388V57.0527H97.2787V54.2739H95.7104V61.3723H97.2787ZM88.4903 57.1628H84.8554C85.0067 55.9109 85.6511 55.2369 86.6797 55.2369C87.7083 55.2369 88.394 55.966 88.4903 57.1628ZM86.7538 61.6168C88.3496 61.6168 89.6152 60.7215 89.9728 59.1649H88.4734C88.157 60.0739 87.648 60.4591 86.7813 60.4591C85.5707 60.4591 84.8691 59.6464 84.8279 58.2136H90.0691V58.0485C90.0691 55.5967 88.776 54.0676 86.6988 54.0676C84.7041 54.0676 83.2596 55.6792 83.2596 57.9109C83.2596 60.0326 84.5665 61.6168 86.7538 61.6168ZM70.9993 61.3723V56.6538H71.0268L72.7168 61.3723H74.2966L75.9866 56.6538H76.0141V61.3723H77.5252V54.2739H75.4649L73.5548 59.9141H73.5273L71.5485 54.2739H69.4882V61.3723H70.9993ZM60.1549 60.2993C58.9062 60.2993 58.1654 59.3639 58.1654 57.8231C58.1654 56.2686 58.8924 55.3332 60.1273 55.3332C61.3337 55.3332 62.0892 56.3099 62.0892 57.8506C62.0892 59.3639 61.3485 60.2993 60.1549 60.2993ZM58.2205 63.9998V60.4369C58.7845 61.221 59.5686 61.5512 60.5316 61.5512C62.4437 61.5512 63.6818 60.093 63.6818 57.8506C63.6818 55.5533 62.4162 54.0676 60.449 54.0676C59.5273 54.0676 58.6332 54.4252 58.1379 55.2231V54.2739H56.666V63.9998H58.2205ZM46.2787 61.3723L48.9337 56.1998H48.975V61.3723H50.5432V54.2739H48.5623L45.9072 59.4464H45.866V54.2739H44.2977V61.3723H46.2787ZM31.3517 60.3543C30.1136 60.3543 29.7284 59.075 29.7284 57.7406C29.7284 56.1998 30.2236 55.2781 31.2829 55.2781C31.7506 55.2781 32.3697 55.4845 32.5623 56.1173V59.5702C32.4797 59.9829 32.012 60.3543 31.3517 60.3543ZM35.3411 60.3543C34.6808 60.3543 34.2131 59.9829 34.1305 59.5702V56.1173C34.3231 55.4845 34.9422 55.2781 35.4099 55.2781C36.4691 55.2781 36.9644 56.1998 36.9644 57.7406C36.9644 59.075 36.5792 60.3543 35.3411 60.3543ZM34.1305 63.9998V60.9046H34.1718C34.4469 61.2485 35.121 61.5649 35.6438 61.5649C37.7623 61.5649 38.5326 59.694 38.5326 57.7131C38.5326 55.4707 37.4321 54.0676 35.74 54.0676C35.1348 54.0676 34.4332 54.4252 34.1718 54.7967H34.1305V51.5776H32.5623V54.7967H32.521C32.2596 54.4252 31.558 54.0676 30.9527 54.0676C29.2607 54.0676 28.1602 55.4707 28.1602 57.7131C28.1602 59.694 28.9305 61.5649 31.049 61.5649C31.5718 61.5649 32.2459 61.2485 32.521 60.9046H32.5623V63.9998H34.1305Z"
      fill="#00879D"></path>
  </symbol>
  <symbol fill="none" xmlns="http://www.w3.org/2000/svg" viewBox="0 0 262 64" id="asko">
    <path
      d="M215.982 0C228.553 0 235.96 9.33333 235.96 21.3333C235.96 32.9735 228.553 42.328 215.982 42.328C203.41 42.328 196.003 32.9947 196.003 21.3333C196.003 9.33333 203.41 0 215.982 0ZM215.982 34.8571C224.013 34.8571 227.029 28.0635 227.029 21.3333C227.029 14.2645 224.013 7.4709 215.982 7.4709C207.95 7.4709 204.934 14.2645 204.934 21.3333C204.934 28.0635 207.95 34.8571 215.982 34.8571ZM167.96 0.962963V17.7143L183.844 0.962963H195.008L179.124 16.9206L196.542 41.3651H185.326L173.093 23.2063L167.96 28.3492V41.3651H159.029V0.962963H167.96ZM126.585 27.9577C126.585 33.3333 130.818 35.4286 135.58 35.4286C138.754 35.4286 143.495 34.5185 143.495 30.3915C143.495 26.0317 137.4 25.3016 131.421 23.7143C125.442 22.127 119.304 19.8095 119.304 12.2222C119.304 3.95767 127.156 0 134.5 0C142.966 0 150.786 3.68254 150.786 13.0159H142.13C141.844 8.14814 138.373 6.89947 134.098 6.89947C131.251 6.89947 127.95 8.08465 127.95 11.4815C127.95 14.5926 129.886 14.9947 140.077 17.5979C143.04 18.3386 152.151 20.201 152.151 29.3651C152.151 36.7725 146.289 42.328 135.22 42.328C126.225 42.328 117.802 37.9153 117.908 27.9577H126.585ZM91.9711 0.962963H101.135L116.384 41.3651H107.061L103.992 32.3704H88.7859L85.6113 41.3651H76.5425L91.9711 0.962963ZM101.696 25.746L96.5743 10.9312H96.4579L91.1668 25.746H101.696ZM65.8441 0.772486V31.7143C65.8441 31.7143 65.8441 42.1164 55.4632 42.1164V26.6349H34.7013V31.746H50.2568C50.2568 31.746 50.2568 42.0635 39.8441 42.0635H24.3203V26.5503C24.3203 16.2328 34.7013 16.2328 34.7013 16.2328H50.2568C55.442 16.2328 55.4314 11.1323 55.4314 11.1323H24.3203C24.3203 11.1323 24.3203 0.772486 34.7013 0.772486H65.8441Z"
      fill="#D7102A"></path>
    <path
      d="M225.902 61.3723V58.2908H229.011V61.3723H230.579V54.2739H229.011V57.0527H225.902V54.2739H224.334V61.3723H225.902ZM213.974 61.3723L216.629 56.1998H216.67V61.3723H218.238V54.2739H216.257L213.602 59.4464H213.561V54.2739H211.993V61.3723H213.974ZM203.188 61.5755C204.687 61.5755 206.214 60.8178 206.214 59.275C206.214 58.1723 205.499 57.6348 204.838 57.512V57.4845C205.416 57.3596 205.98 56.7956 205.98 55.9818C205.98 54.5914 204.742 54.0676 203.284 54.0676C201.853 54.0676 200.354 54.5226 200.189 56.3268H201.771C201.908 55.7067 202.293 55.2665 203.133 55.2665C204.054 55.2665 204.426 55.6379 204.426 56.1617C204.426 56.8781 203.834 57.0982 203.009 57.0982H202.376V58.2559H203.256C204.343 58.2559 204.646 58.7109 204.646 59.3025C204.646 59.9776 204.054 60.3628 203.174 60.3628C202.486 60.3628 201.702 60.1427 201.564 59.1649H199.982C200.051 60.639 201.124 61.5755 203.188 61.5755ZM190.829 60.4369C190.02 60.4369 189.554 60.0517 189.554 59.3776C189.554 58.4422 190.376 58.3046 191.103 58.1945C191.665 58.112 192.242 58.0982 192.748 57.8094V58.6485C192.748 59.075 192.762 59.5427 192.433 59.8728C192.077 60.2305 191.473 60.4369 190.829 60.4369ZM193.983 61.5617C194.286 61.5617 194.506 61.5342 195.001 61.4104V60.3067C194.809 60.3342 194.754 60.3342 194.644 60.3342C194.355 60.3342 194.272 60.2242 194.272 59.8115V56.2019C194.272 54.6728 193.034 54.0527 191.356 54.0527C189.623 54.0527 188.426 54.7141 188.247 56.4633H189.733C189.856 55.5406 190.297 55.1967 191.315 55.1967C192.305 55.1967 192.773 55.5406 192.773 56.2707C192.773 56.5321 192.745 56.6982 192.676 56.7808C192.525 56.9871 192.209 57.0559 191.122 57.1935C189.705 57.3734 187.944 57.5522 187.944 59.439C187.944 60.748 188.866 61.5607 190.338 61.5607C191.273 61.5607 192.181 61.3268 192.828 60.7067C192.938 61.3268 193.378 61.5607 193.983 61.5607V61.5617ZM179.827 61.3723V55.512H183.225V54.2739H178.259V61.3723H179.827ZM168.683 60.4369C167.871 60.4369 167.403 60.0517 167.403 59.3776C167.403 58.4422 168.229 58.3046 168.958 58.1945C169.522 58.112 170.1 58.0982 170.609 57.8094V58.6485C170.609 59.075 170.623 59.5427 170.292 59.8728C169.935 60.2305 169.329 60.4369 168.683 60.4369ZM171.833 61.5617C172.136 61.5617 172.356 61.5342 172.851 61.4104V60.3067C172.659 60.3342 172.603 60.3342 172.493 60.3342C172.205 60.3342 172.122 60.2242 172.122 59.8115V56.2019C172.122 54.6728 170.884 54.0527 169.206 54.0527C167.472 54.0527 166.275 54.7141 166.097 56.4633H167.582C167.706 55.5406 168.146 55.1967 169.164 55.1967C170.155 55.1967 170.623 55.5406 170.623 56.2707C170.623 56.5321 170.595 56.6982 170.526 56.7808C170.375 56.9871 170.059 57.0559 168.972 57.1935C167.555 57.3734 165.794 57.5522 165.794 59.439C165.794 60.748 166.716 61.5607 168.188 61.5607C169.123 61.5607 170.031 61.3268 170.678 60.7067C170.788 61.3268 171.228 61.5607 171.833 61.5607V61.5617ZM153.55 61.3723V56.6538H153.577L155.269 61.3723H156.851L158.543 56.6538H158.571V61.3723H160.084V54.2739H158.02L156.108 59.9141H156.081L154.1 54.2739H152.036V61.3723H153.55ZM133.408 61.3723L136.063 56.1998H136.104V61.3723H137.672V54.2739H135.691L133.036 59.4464H132.995V54.2739H131.427V61.3723H133.408ZM134.555 53.2834C135.962 53.2834 136.679 52.6644 136.816 51.3438H136.016C135.836 52.0591 135.381 52.3893 134.555 52.3893C133.727 52.3893 133.272 52.0591 133.093 51.3438H132.293C132.431 52.6644 133.148 53.2834 134.555 53.2834ZM120.263 60.148H118.55V58.0707H120.235C120.906 58.0707 121.277 58.5109 121.277 59.13C121.277 59.7078 120.975 60.148 120.263 60.148ZM120.453 61.3723C121.998 61.3723 122.866 60.5057 122.866 59.1025C122.866 57.7131 121.998 56.8464 120.441 56.8464H118.553V54.2739H116.981V61.3723H120.453ZM125.4 61.3723V54.2739H123.832V61.3723H125.4ZM106.278 61.3723V58.2908H109.387V61.3723H110.955V54.2739H109.387V57.0527H106.278V54.2739H104.709V61.3723H106.278ZM93.9369 61.3723V58.2908H97.0458V61.3723H98.6141V54.2739H97.0458V57.0527H93.9369V54.2739H92.3686V61.3723H93.9369ZM85.1485 57.1628H81.5136C81.6649 55.9109 82.3093 55.2369 83.3379 55.2369C84.3665 55.2369 85.0522 55.966 85.1485 57.1628ZM83.412 61.6168C85.0078 61.6168 86.2734 60.7215 86.631 59.1649H85.1316C84.8152 60.0739 84.3062 60.4591 83.4395 60.4591C82.2289 60.4591 81.5273 59.6464 81.4861 58.2136H86.7273V58.0485C86.7273 55.5967 85.4342 54.0676 83.357 54.0676C81.3623 54.0676 79.9178 55.6792 79.9178 57.9109C79.9178 60.0326 81.2247 61.6168 83.412 61.6168ZM67.6575 61.3723V56.6538H67.685L69.375 61.3723H70.9549L72.6448 56.6538H72.6723V61.3723H74.1834V54.2739H72.1231L70.2131 59.9141H70.1855L68.2067 54.2739H66.1464V61.3723H67.6575ZM56.8131 60.2993C55.5644 60.2993 54.8236 59.3639 54.8236 57.8231C54.8236 56.2686 55.5506 55.3332 56.7855 55.3332C57.9919 55.3332 58.7474 56.3099 58.7474 57.8506C58.7474 59.3639 58.0067 60.2993 56.8131 60.2993ZM54.8787 63.9998V60.4369C55.4427 61.221 56.2268 61.5512 57.1898 61.5512C59.1019 61.5512 60.34 60.093 60.34 57.8506C60.34 55.5533 59.0744 54.0676 57.1072 54.0676C56.1855 54.0676 55.2914 54.4252 54.7961 55.2231V54.2739H53.3242V63.9998H54.8787ZM42.9369 61.3723L45.5919 56.1998H45.6332V61.3723H47.2014V54.2739H45.2205L42.5654 59.4464H42.5242V54.2739H40.9559V61.3723H42.9369ZM28.0099 60.3543C26.7718 60.3543 26.3866 59.075 26.3866 57.7406C26.3866 56.1998 26.8819 55.2781 27.9411 55.2781C28.4088 55.2781 29.0279 55.4845 29.2205 56.1173V59.5702C29.1379 59.9829 28.6702 60.3543 28.0099 60.3543ZM31.9993 60.3543C31.339 60.3543 30.8713 59.9829 30.7887 59.5702V56.1173C30.9813 55.4845 31.6004 55.2781 32.0681 55.2781C33.1274 55.2781 33.6226 56.1998 33.6226 57.7406C33.6226 59.075 33.2374 60.3543 31.9993 60.3543ZM30.7887 63.9998V60.9046H30.83C31.1051 61.2485 31.7792 61.5649 32.302 61.5649C34.4205 61.5649 35.1908 59.694 35.1908 57.7131C35.1908 55.4707 34.0903 54.0676 32.3983 54.0676C31.793 54.0676 31.0914 54.4252 30.83 54.7967H30.7887V51.5776H29.2205V54.7967H29.1792C28.9178 54.4252 28.2162 54.0676 27.611 54.0676C25.9189 54.0676 24.8184 55.4707 24.8184 57.7131C24.8184 59.694 25.5887 61.5649 27.7072 61.5649C28.23 61.5649 28.9041 61.2485 29.1792 60.9046H29.2205V63.9998H30.7887Z"
      fill="black"></path>
  </symbol>
  <symbol xmlns="http://www.w3.org/2000/svg" fill="none" viewBox="0 0 204 50" id="bosh">
    <path fill="#00639A" fill-rule="evenodd"
      d="M79.329 11.264V9.742c0-.618-.07-1.16-.208-1.624-.138-.47-.338-.86-.599-1.173a2.416 2.416 0 0 0-.942-.704C77.215 6.08 76.8 6 76.34 6c-.445 0-.85.08-1.217.24a2.527 2.527 0 0 0-.948.705c-.264.312-.468.703-.61 1.173-.144.465-.215 1.006-.215 1.624v1.522c0 .618.072 1.161.214 1.63.147.466.353.855.618 1.168.264.312.58.547.947.703a3.07 3.07 0 0 0 1.217.235c.46 0 .874-.078 1.24-.235.367-.156.681-.39.942-.704.26-.312.459-.701.593-1.167.139-.469.208-1.012.208-1.63ZM78.216 9.73v1.534c0 .485-.04.902-.122 1.251-.077.345-.196.63-.354.855-.155.22-.351.385-.587.493a1.955 1.955 0 0 1-.807.156c-.286 0-.544-.052-.777-.156a1.59 1.59 0 0 1-.599-.493 2.524 2.524 0 0 1-.379-.855 5.314 5.314 0 0 1-.128-1.251V9.73c0-.481.043-.894.128-1.24.09-.348.216-.633.38-.854.162-.22.358-.383.586-.487a1.83 1.83 0 0 1 .782-.162c.306 0 .575.054.808.162.232.104.427.267.586.487.16.221.28.506.361.855.082.345.122.758.122 1.239ZM55.622 7.07v-.95H51v8.76h2.91a2.99 2.99 0 0 0 1.094-.187c.318-.128.585-.309.801-.541a2.32 2.32 0 0 0 .495-.83 3.14 3.14 0 0 0 .171-1.06c0-.517-.1-.968-.3-1.353a2.086 2.086 0 0 0-.867-.896c-.38-.217-.844-.325-1.394-.325h-1.785V7.07h3.497Zm-3.497 3.568v3.297h1.785c.342 0 .617-.078.825-.235.212-.16.367-.368.465-.625.098-.257.146-.532.146-.824 0-.293-.048-.562-.146-.806a1.25 1.25 0 0 0-.465-.584c-.208-.148-.483-.223-.825-.223h-1.785Zm6.975 0v3.297h1.785c.343 0 .618-.078.826-.235.211-.16.366-.368.464-.625.098-.257.147-.532.147-.824 0-.293-.05-.562-.147-.806a1.25 1.25 0 0 0-.464-.584c-.208-.148-.483-.223-.826-.223H59.1Zm1.785-.95H59.1V6.12h-1.125v8.76h2.91c.412 0 .777-.063 1.094-.187.318-.128.585-.309.801-.541.22-.237.385-.514.495-.83a3.14 3.14 0 0 0 .172-1.06c0-.517-.1-.968-.3-1.353a2.086 2.086 0 0 0-.868-.896c-.379-.217-.844-.325-1.394-.325Zm4.463 5.192V6.12h-1.125v8.76h1.125Zm4.707-7.81v7.81h-1.113V7.07h-2.335v-.95h5.789v.95h-2.34Zm12.263 3.713h-.122v3.152h1.528c.294 0 .542-.064.746-.192a1.22 1.22 0 0 0 .465-.542c.11-.236.165-.515.165-.836 0-.325-.045-.606-.135-.842a1.1 1.1 0 0 0-.428-.548c-.195-.128-.452-.192-.77-.192h-1.449Zm-.122-3.712v2.78h1.43c.253 0 .477-.057.673-.17.196-.111.348-.272.458-.48.115-.213.172-.466.172-.758 0-.321-.05-.582-.147-.783a.88.88 0 0 0-.434-.445c-.192-.096-.436-.144-.734-.144h-1.418Zm2.922 3.074c-.066.042-.134.08-.205.115.207.062.39.158.547.288.253.2.443.457.57.77.13.313.195.658.195 1.035 0 .545-.104 1.007-.312 1.384a2.057 2.057 0 0 1-.868.854c-.375.192-.815.289-1.32.289H81.07V6.12h2.543c.383 0 .726.046 1.027.139.302.088.557.228.764.42.212.19.373.43.483.723.11.293.165.643.165 1.053 0 .36-.083.687-.25.98a1.982 1.982 0 0 1-.685.71Zm5.68-4.025h.244l2.867 8.76h-1.15l-.698-2.292h-3.004l-.699 2.292h-1.15l2.868-8.76h.721Zm.974 5.517-1.213-3.978-1.212 3.978h2.425Zm7.248-4.566v3.447h-1.284c-.35 0-.642-.076-.874-.229a1.424 1.424 0 0 1-.526-.625 2.258 2.258 0 0 1-.171-.903c0-.517.128-.928.385-1.233.257-.305.644-.457 1.162-.457h1.308Zm0 4.398h-1.537l-1.538 3.41h-1.198l1.75-3.752a2.513 2.513 0 0 1-1.017-.814c-.293-.417-.44-.934-.44-1.552 0-.565.108-1.044.324-1.437.216-.394.524-.692.923-.897.404-.204.878-.307 1.424-.307h2.434v8.76H99.02v-3.411Zm7.531 3.41h1.113V7.072h2.341v-.95h-5.789v.95h2.335v7.809Zm9.555-.944v.945h-4.786V6.12h4.725v.95h-3.6v2.816h3.142v.945h-3.142v3.104h3.661Zm3.943-4.458-1.687-3.357h-1.308l2.323 4.338-2.372 4.422h1.327l1.717-3.423 1.712 3.423h1.321l-2.366-4.422 2.317-4.338h-1.309l-1.675 3.357Zm5.527 1.354h3.576v4.049h1.125V6.12h-1.125v3.766h-3.576V6.12h-1.125v8.76h1.125v-4.05Zm11.279-4.71-3.466 6.75V6.12h-1.119v8.759h1.119l3.466-6.756v6.756h1.125V6.12h-1.125Zm4.304 0v3.856h.684l2.501-3.857h1.393l-2.822 4.23 3.03 4.53h-1.369l-2.579-3.94h-.838v3.94h-1.125V6.12h1.125Zm8.729 0h.245L153 14.88h-1.149l-.699-2.292h-3.004l-.699 2.292H146.3l2.867-8.76h.721Zm.974 5.516-1.212-3.978-1.213 3.978h2.425Zm-25.213 26.324h5.625c-.035 1.942-.421 3.587-1.157 4.937a7.318 7.318 0 0 1-3.133 3.072c-1.353.687-2.955 1.03-4.806 1.03-1.471 0-2.777-.249-3.916-.746a7.918 7.918 0 0 1-2.902-2.202c-.783-.959-1.376-2.137-1.78-3.534-.391-1.397-.587-2.995-.587-4.794V31.71c0-1.788.213-3.386.641-4.795.427-1.409 1.032-2.593 1.815-3.552a7.668 7.668 0 0 1 2.902-2.201c1.139-.498 2.415-.746 3.827-.746 1.934 0 3.56.36 4.878 1.083 1.317.722 2.331 1.77 3.043 3.143.713 1.373 1.116 3.037 1.211 4.99h-5.643c.012-1.184-.095-2.107-.32-2.77-.214-.675-.576-1.149-1.086-1.42-.511-.285-1.205-.427-2.083-.427-.629 0-1.169.118-1.62.355-.451.225-.813.598-1.086 1.119-.273.52-.474 1.207-.605 2.06-.13.852-.196 1.894-.196 3.125v4.049c0 1.231.054 2.273.161 3.125.106.84.29 1.527.551 2.06.261.521.617.9 1.068 1.137.451.236 1.027.355 1.727.355.783 0 1.43-.119 1.94-.355.511-.249.89-.693 1.14-1.332.261-.64.391-1.557.391-2.753Zm-35.566-6.215v4.12c0 1.835-.225 3.45-.676 4.848-.451 1.385-1.098 2.545-1.94 3.48a7.964 7.964 0 0 1-2.991 2.113c-1.151.462-2.427.693-3.827.693-1.413 0-2.7-.23-3.863-.693a8.122 8.122 0 0 1-3.008-2.113c-.843-.935-1.496-2.095-1.959-3.48-.45-1.397-.676-3.013-.676-4.848v-4.12c0-1.858.225-3.492.676-4.901.463-1.42 1.11-2.598 1.94-3.534a8.249 8.249 0 0 1 2.991-2.148c1.163-.486 2.45-.729 3.863-.729 1.412 0 2.694.243 3.845.729a8.053 8.053 0 0 1 2.99 2.148c.843.936 1.49 2.113 1.94 3.534.464 1.409.695 3.043.695 4.901Zm-5.678 4.12V31.71c0-1.196-.084-2.214-.25-3.055-.154-.84-.391-1.527-.712-2.06-.32-.532-.718-.923-1.192-1.172-.463-.248-1.009-.372-1.638-.372-.64 0-1.199.124-1.673.372-.475.249-.873.64-1.193 1.172-.308.533-.54 1.22-.694 2.06-.143.84-.214 1.859-.214 3.055v4.155c0 1.16.077 2.154.232 2.983.154.829.391 1.504.712 2.025.32.52.718.905 1.192 1.154.475.248 1.033.373 1.674.373.617 0 1.157-.125 1.62-.373.474-.249.866-.633 1.174-1.154.32-.521.558-1.196.712-2.025.166-.828.25-1.823.25-2.983Zm-25.42-4.28H56.6v-6.215h2.456c.689 0 1.246.107 1.673.32.428.213.736.55.926 1.012.202.462.303 1.071.303 1.829 0 .675-.101 1.237-.303 1.687-.19.45-.504.793-.943 1.03-.44.225-1.015.337-1.727.337ZM56.6 35.511h3.31c.618 0 1.098.142 1.443.426.355.272.61.669.765 1.19.154.509.231 1.112.231 1.811 0 .592-.083 1.125-.249 1.598a2.314 2.314 0 0 1-.837 1.137c-.38.272-.895.408-1.548.408H56.6v-6.57Zm-5.661 11.134h8.776c1.816 0 3.334-.284 4.557-.853 1.234-.58 2.16-1.432 2.777-2.557.617-1.136.925-2.545.925-4.226a7.837 7.837 0 0 0-.534-2.877c-.356-.923-.96-1.663-1.815-2.22a4.215 4.215 0 0 0-1.187-.535c.2-.09.388-.19.564-.299.925-.568 1.59-1.308 1.993-2.22a7.146 7.146 0 0 0 .623-2.965c0-1.208-.195-2.256-.587-3.143a5.814 5.814 0 0 0-1.691-2.22c-.736-.592-1.632-1.03-2.688-1.314-1.056-.284-2.255-.426-3.596-.426H50.94v25.855Zm53.42-8.009c.083.343.125.734.125 1.172 0 .51-.077.97-.231 1.385a1.97 1.97 0 0 1-.748.977c-.356.248-.843.373-1.46.373-.605 0-1.127-.071-1.566-.213a2.711 2.711 0 0 1-1.086-.71c-.285-.32-.499-.746-.64-1.28-.131-.544-.197-1.2-.197-1.97h-5.66c0 1.503.249 2.8.747 3.889.499 1.089 1.17 1.983 2.012 2.681a8.675 8.675 0 0 0 2.92 1.563c1.09.331 2.224.497 3.399.497 1.246 0 2.374-.166 3.382-.497 1.009-.332 1.863-.811 2.564-1.439a6.27 6.27 0 0 0 1.637-2.273c.38-.9.57-1.906.57-3.018 0-1.09-.16-2.06-.481-2.913a6.741 6.741 0 0 0-1.388-2.308c-.605-.687-1.365-1.302-2.279-1.847a20.955 20.955 0 0 0-3.097-1.51 18.479 18.479 0 0 1-1.531-.71 8.186 8.186 0 0 1-1.21-.781 3.719 3.719 0 0 1-.801-.888 2.114 2.114 0 0 1-.285-1.1c0-.522.095-.995.285-1.422.19-.426.48-.763.872-1.012.391-.248.884-.373 1.477-.373.641 0 1.157.154 1.549.462.403.296.7.71.89 1.243.19.521.285 1.13.285 1.83h5.625c0-1.599-.344-2.996-1.033-4.192a7.14 7.14 0 0 0-2.883-2.805c-1.235-.675-2.676-1.012-4.326-1.012-1.222 0-2.344.171-3.364.514-1.02.332-1.905.817-2.653 1.457a6.516 6.516 0 0 0-1.744 2.29c-.415.888-.623 1.883-.623 2.984 0 1.136.213 2.13.64 2.983.428.84.997 1.574 1.71 2.202.712.615 1.513 1.16 2.403 1.634.902.461 1.827.887 2.777 1.278.771.332 1.394.651 1.869.959.474.308.83.616 1.068.923.237.296.397.622.48.977Zm42.705-2.93h-7.156v10.939h-5.661V20.79h5.661v10.37h7.156V20.79h5.625v25.855h-5.625V35.706Z"
      clip-rule="evenodd"></path>
  </symbol>
</svg>