<svg xmlns="http://www.w3.org/2000/svg">

  <symbol id="heart" width="24" height="24" viewBox="0 0 24 24">
    <path
      d="M10.84 17.9929C6.72 14.43 4 12.0801 4 9.19618C4 6.84632 5.936 5 8.4 5C9.792 5 11.128 5.61798 12 6.59455C12.872 5.61798 14.208 5 15.6 5C18.064 5 20 6.84632 20 9.19618C20 12.0801 17.28 14.43 13.16 18.0005L12 19L10.84 17.9929Z"
      stroke-width="1.5" />
  </symbol>

  <symbol id="compare" width="24" height="24" viewBox="0 0 24 24">
    <path fill-rule="evenodd" clip-rule="evenodd" d="M5 6H19M5 12H19M5 18H11M15 18H19M17 16V20" stroke-width="1.5"
      stroke-linecap="square" stroke-linejoin="round" />
  </symbol>

  <symbol id="cart" viewBox="0 0 24 24">
    <path fill-rule="evenodd" clip-rule="evenodd"
      d="M9 18C10.1046 18 11 18.8954 11 20C11 21.1046 10.1046 22 9 22C7.89543 22 7 21.1046 7 20C7 18.8954 7.89543 18 9 18ZM16 18C17.1046 18 18 18.8954 18 20C18 21.1046 17.1046 22 16 22C14.8954 22 14 21.1046 14 20C14 18.8954 14.8954 18 16 18ZM4.79166 2L5.08485 3.38852L5.6552 6H21.5308L21.1932 7.09095L19 16.7519V17H6V16.6776H5.9872L3.2184 4H0V2H4.79166ZM18.9869 8H6.092L7.62081 15H17.3978L18.9869 8Z" />

  </symbol>
  <symbol id="cart-plus" viewBox="0 0 24 24">
    <path fill-rule="evenodd" clip-rule="evenodd"
      d="M9 18C10.1046 18 11 18.8954 11 20C11 21.1046 10.1046 22 9 22C7.89543 22 7 21.1046 7 20C7 18.8954 7.89543 18 9 18ZM16 18C17.1046 18 18 18.8954 18 20C18 21.1046 17.1046 22 16 22C14.8954 22 14 21.1046 14 20C14 18.8954 14.8954 18 16 18ZM4.79166 2L5.08485 3.38852L5.6552 6H14V8H6.092L7.62081 15H17.3978L18.0788 12H20.0788L19 16.7519V17H6V16.6776H5.9872L3.2184 4H0V2H4.79166ZM20 5.99863V3.5L18 3.5V5.99996L15.5 5.99963V7.99996L18 8V10.5H20V7.99996H22.5V5.99996L20 5.99863Z" />
  </symbol>
  <symbol id="cart-added" viewBox="0 0 24 24">
    <path fill-rule="evenodd" clip-rule="evenodd"
      d="M9 18C10.1046 18 11 18.8954 11 20C11 21.1046 10.1046 22 9 22C7.89543 22 7 21.1046 7 20C7 18.8954 7.89543 18 9 18ZM16 18C17.1046 18 18 18.8954 18 20C18 21.1046 17.1046 22 16 22C14.8954 22 14 21.1046 14 20C14 18.8954 14.8954 18 16 18ZM4.79166 2L5.08485 3.38852L5.6552 6H13V8H6.092L7.62081 15H17.3978L18.0788 12H20.0788L19 16.7519V17H6V16.6776H5.9872L3.2184 4H0V2H4.79166ZM18.5522 10.8619L23.707 5.70712L22.2928 4.29291L18.4476 8.1381L15.6507 5.74076L14.3491 7.25927L18.5522 10.8619Z" />
  </symbol>
</svg>